<svg width="450" height="200" viewBox="0 0 550 270" fill="none" xmlns="http://www.w3.org/2000/svg">
<g opacity="0.1">

</g>
<path d="M354 59H191V228H354V59Z" fill="url(#paint5_linear_6035_18299)"/>
<g clip-path="url(#clip0_6035_18299)">
<path d="M78.1551 139.187C78.1551 139.187 60.5169 140.016 84.9072 157.749C109.297 175.481 117.29 193.259 155.46 178.705C163.039 175.803 174.614 169.401 174.614 169.401C174.614 169.401 180.493 166.5 188.531 170.737C198.499 175.988 211.957 188.976 223.486 193.95C236.026 199.385 253.526 176.863 257.66 177.968C257.66 177.968 273.507 195.332 278.1 200.306C285.174 207.952 307.222 239.179 327.386 201.273C347.55 163.368 373.87 92.3462 401.567 88.0168C420.17 85.1151 435.833 118.737 469.502 127.396C482.914 130.851 512.954 138.45 512.954 138.45L78.1551 139.141V139.187Z" fill="url(#paint6_linear_6035_18299)"/>
<path d="M78.4764 138.495C78.4764 138.495 60.8382 139.324 85.2285 157.057C109.619 174.789 117.611 192.567 155.781 178.013C193.997 163.505 197.718 140.89 223.716 152.174C249.714 163.459 269.786 193.857 278.697 203.483C285.771 211.129 307.543 238.533 327.707 200.581C347.872 162.676 351.041 144.897 370.149 157.84C389.257 170.782 404.093 180.408 422.696 177.184C441.299 173.96 452.231 155.721 465.322 148.72C479.882 140.936 487.002 138.449 487.002 138.449H78.4764V138.495Z" fill="url(#paint7_linear_6035_18299)"/>
<path d="M78.1548 139.187C78.1548 139.187 82.6562 137.16 106.449 121.547C123.031 110.677 133.504 107.038 154.725 119.935C175.946 132.831 190.828 138.496 216.274 111.875C241.721 85.253 271.44 36.8461 314.433 98.1492C344.059 140.43 353.705 134.443 361.146 134.443C368.587 134.443 399.959 95.7542 425.314 103.814C448.097 111.045 446.994 122.468 470.145 131.357C490.585 139.187 487.002 138.496 487.002 138.496L78.1548 139.187Z" fill="url(#paint8_linear_6035_18299)"/>
<path d="M78.1551 139.187C78.1551 139.187 60.5169 140.016 84.9072 157.748C109.297 175.481 117.29 193.259 155.46 178.705C163.039 175.803 174.614 169.401 174.614 169.401C174.614 169.401 180.493 166.499 188.531 170.737C198.499 175.987 211.957 188.976 223.486 193.95C236.026 199.385 253.526 176.862 257.66 177.968C257.66 177.968 271.578 195.239 276.171 200.214C283.245 207.859 305.798 240.146 327.386 201.273C348.056 164.012 373.87 92.346 401.567 88.0165C420.17 85.1149 439.646 125.922 473.314 134.581C486.727 138.035 486.956 138.45 486.956 138.45L78.1092 139.141L78.1551 139.187Z" fill="url(#paint9_linear_6035_18299)"/>
</g>
<path d="M174 59.2402H210.953" stroke="#5427D8" stroke-width="2" stroke-miterlimit="10" stroke-linecap="round"/>
<path d="M191.929 77.5601V41" stroke="#5427D8" stroke-width="2" stroke-miterlimit="10" stroke-linecap="round"/>
<path d="M334.163 59.2402H371.116" stroke="#5427D8" stroke-width="2" stroke-miterlimit="10" stroke-linecap="round"/>
<path d="M352.092 77.5601V41" stroke="#5427D8" stroke-width="2" stroke-miterlimit="10" stroke-linecap="round"/>
<path d="M174 228.68H210.953" stroke="#5427D8" stroke-width="2" stroke-miterlimit="10" stroke-linecap="round"/>
<path d="M191.929 247V210.439" stroke="#5427D8" stroke-width="2" stroke-miterlimit="10" stroke-linecap="round"/>
<path d="M334.159 228.68H371.112" stroke="#5427D8" stroke-width="2" stroke-miterlimit="10" stroke-linecap="round"/>
<path d="M352.089 247V210.439" stroke="#5427D8" stroke-width="2" stroke-miterlimit="10" stroke-linecap="round"/>
<defs>
<linearGradient id="paint0_linear_6035_18299" x1="16.2135" y1="-33.2571" x2="214.48" y2="217.663" gradientUnits="userSpaceOnUse">
<stop stop-color="#FC851A" stop-opacity="0.97"/>
<stop offset="0.04" stop-color="#FC851A" stop-opacity="0.79"/>
<stop offset="0.07" stop-color="#FC851A" stop-opacity="0.62"/>
<stop offset="0.11" stop-color="#FC851A" stop-opacity="0.47"/>
<stop offset="0.15" stop-color="#FC851A" stop-opacity="0.34"/>
<stop offset="0.2" stop-color="#FC851A" stop-opacity="0.24"/>
<stop offset="0.25" stop-color="#FC851A" stop-opacity="0.15"/>
<stop offset="0.31" stop-color="#FC851A" stop-opacity="0.08"/>
<stop offset="0.38" stop-color="#FC851A" stop-opacity="0.03"/>
<stop offset="0.49" stop-color="#FC851A" stop-opacity="0"/>
<stop offset="0.77" stop-color="#FC851A" stop-opacity="0"/>
</linearGradient>
<linearGradient id="paint1_linear_6035_18299" x1="107.25" y1="477.386" x2="314.334" y2="-244.874" gradientUnits="userSpaceOnUse">
<stop stop-color="#FF6F8E" stop-opacity="0.96"/>
<stop offset="0.05" stop-color="#FF6F8E" stop-opacity="0.78"/>
<stop offset="0.09" stop-color="#FF6F8E" stop-opacity="0.61"/>
<stop offset="0.14" stop-color="#FF6F8E" stop-opacity="0.47"/>
<stop offset="0.2" stop-color="#FF6F8E" stop-opacity="0.34"/>
<stop offset="0.25" stop-color="#FF6F8E" stop-opacity="0.23"/>
<stop offset="0.32" stop-color="#FF6F8E" stop-opacity="0.15"/>
<stop offset="0.4" stop-color="#FF6F8E" stop-opacity="0.08"/>
<stop offset="0.49" stop-color="#FF6F8E" stop-opacity="0.03"/>
<stop offset="0.63" stop-color="#FF6F8E" stop-opacity="0"/>
<stop offset="1" stop-color="#FF6F8E" stop-opacity="0"/>
</linearGradient>
<linearGradient id="paint2_linear_6035_18299" x1="107.25" y1="477.386" x2="314.334" y2="-244.874" gradientUnits="userSpaceOnUse">
<stop stop-color="#FF6F8E" stop-opacity="0.96"/>
<stop offset="0.05" stop-color="#FF6F8E" stop-opacity="0.78"/>
<stop offset="0.09" stop-color="#FF6F8E" stop-opacity="0.61"/>
<stop offset="0.14" stop-color="#FF6F8E" stop-opacity="0.47"/>
<stop offset="0.2" stop-color="#FF6F8E" stop-opacity="0.34"/>
<stop offset="0.25" stop-color="#FF6F8E" stop-opacity="0.23"/>
<stop offset="0.32" stop-color="#FF6F8E" stop-opacity="0.15"/>
<stop offset="0.4" stop-color="#FF6F8E" stop-opacity="0.08"/>
<stop offset="0.49" stop-color="#FF6F8E" stop-opacity="0.03"/>
<stop offset="0.63" stop-color="#FF6F8E" stop-opacity="0"/>
<stop offset="1" stop-color="#FF6F8E" stop-opacity="0"/>
</linearGradient>
<linearGradient id="paint3_linear_6035_18299" x1="540.547" y1="256.971" x2="11.8294" y2="-123.594" gradientUnits="userSpaceOnUse">
<stop stop-color="#4D24C6" stop-opacity="0.99"/>
<stop offset="0.05" stop-color="#4D24C6" stop-opacity="0.78"/>
<stop offset="0.1" stop-color="#4D24C6" stop-opacity="0.6"/>
<stop offset="0.15" stop-color="#4D24C6" stop-opacity="0.44"/>
<stop offset="0.21" stop-color="#4D24C6" stop-opacity="0.3"/>
<stop offset="0.28" stop-color="#4D24C6" stop-opacity="0.19"/>
<stop offset="0.37" stop-color="#4D24C6" stop-opacity="0.1"/>
<stop offset="0.47" stop-color="#4D24C6" stop-opacity="0.04"/>
<stop offset="0.61" stop-color="#4D24C6" stop-opacity="0"/>
<stop offset="1" stop-color="#4D24C6" stop-opacity="0"/>
</linearGradient>
<linearGradient id="paint4_linear_6035_18299" x1="540.547" y1="256.971" x2="11.8294" y2="-123.594" gradientUnits="userSpaceOnUse">
<stop stop-color="#4D24C6" stop-opacity="0.3"/>
<stop offset="0.08" stop-color="#893DB2" stop-opacity="0.2"/>
<stop offset="0.18" stop-color="#BE53A2" stop-opacity="0.12"/>
<stop offset="0.31" stop-color="#E36396" stop-opacity="0.06"/>
<stop offset="0.5" stop-color="#F96C8F" stop-opacity="0.03"/>
<stop offset="1" stop-color="#FF6F8E" stop-opacity="0.02"/>
</linearGradient>
<linearGradient id="paint5_linear_6035_18299" x1="179.019" y1="159.99" x2="365.992" y2="127.074" gradientUnits="userSpaceOnUse">
<stop stop-color="#5427D8" stop-opacity="0.2"/>
<stop offset="0.04" stop-color="#5427D8" stop-opacity="0.15"/>
<stop offset="0.09" stop-color="#5427D8" stop-opacity="0.09"/>
<stop offset="0.18" stop-color="#5427D8" stop-opacity="0.06"/>
<stop offset="0.4" stop-color="#5427D8" stop-opacity="0.05"/>
</linearGradient>
<linearGradient id="paint6_linear_6035_18299" x1="292.477" y1="92.6687" x2="292.477" y2="219.558" gradientUnits="userSpaceOnUse">
<stop stop-color="#FE6F89" stop-opacity="0.96"/>
<stop offset="0.02" stop-color="#FE7374" stop-opacity="0.78"/>
<stop offset="0.04" stop-color="#FD7761" stop-opacity="0.61"/>
<stop offset="0.06" stop-color="#FD7A50" stop-opacity="0.47"/>
<stop offset="0.08" stop-color="#FD7D41" stop-opacity="0.34"/>
<stop offset="0.11" stop-color="#FC7F35" stop-opacity="0.23"/>
<stop offset="0.14" stop-color="#FC812B" stop-opacity="0.15"/>
<stop offset="0.17" stop-color="#FC8323" stop-opacity="0.08"/>
<stop offset="0.21" stop-color="#FC841D" stop-opacity="0.03"/>
<stop offset="0.27" stop-color="#FC841A" stop-opacity="0"/>
<stop offset="0.43" stop-color="#FC851A" stop-opacity="0"/>
</linearGradient>
<linearGradient id="paint7_linear_6035_18299" x1="273.185" y1="103.998" x2="294.103" y2="222.301" gradientUnits="userSpaceOnUse">
<stop offset="0.16" stop-color="#FC851A" stop-opacity="0"/>
<stop offset="0.33" stop-color="#FC841B" stop-opacity="0.01"/>
<stop offset="0.44" stop-color="#FC831F" stop-opacity="0.05"/>
<stop offset="0.54" stop-color="#FC8226" stop-opacity="0.1"/>
<stop offset="0.63" stop-color="#FC802F" stop-opacity="0.19"/>
<stop offset="0.71" stop-color="#FC7E3C" stop-opacity="0.3"/>
<stop offset="0.78" stop-color="#FD7B4B" stop-opacity="0.43"/>
<stop offset="0.86" stop-color="#FD785E" stop-opacity="0.59"/>
<stop offset="0.93" stop-color="#FE7473" stop-opacity="0.77"/>
<stop offset="0.99" stop-color="#FE6F8B" stop-opacity="0.97"/>
<stop offset="1" stop-color="#FF6F8E"/>
</linearGradient>
<linearGradient id="paint8_linear_6035_18299" x1="282.693" y1="71.2053" x2="282.693" y2="181.606" gradientUnits="userSpaceOnUse">
<stop stop-color="#FF6F8E"/>
<stop offset="0.03" stop-color="#FE7085" stop-opacity="0.93"/>
<stop offset="0.12" stop-color="#FE756C" stop-opacity="0.71"/>
<stop offset="0.21" stop-color="#FD7956" stop-opacity="0.52"/>
<stop offset="0.3" stop-color="#FD7D43" stop-opacity="0.36"/>
<stop offset="0.39" stop-color="#FC7F34" stop-opacity="0.23"/>
<stop offset="0.49" stop-color="#FC8228" stop-opacity="0.13"/>
<stop offset="0.59" stop-color="#FC8320" stop-opacity="0.06"/>
<stop offset="0.69" stop-color="#FC841B" stop-opacity="0.01"/>
<stop offset="0.8" stop-color="#FC851A" stop-opacity="0"/>
</linearGradient>
<linearGradient id="paint9_linear_6035_18299" x1="279.524" y1="215.321" x2="279.524" y2="88.1086" gradientUnits="userSpaceOnUse">
<stop stop-color="#FF6F8E"/>
<stop offset="0.04" stop-color="#FE717E" stop-opacity="0.87"/>
<stop offset="0.12" stop-color="#FD7760" stop-opacity="0.61"/>
<stop offset="0.2" stop-color="#FD7C47" stop-opacity="0.39"/>
<stop offset="0.27" stop-color="#FC8033" stop-opacity="0.22"/>
<stop offset="0.33" stop-color="#FC8225" stop-opacity="0.1"/>
<stop offset="0.38" stop-color="#FC841D" stop-opacity="0.03"/>
<stop offset="0.42" stop-color="#FC851A" stop-opacity="0"/>
</linearGradient>
<clipPath id="clip0_6035_18299">
<rect width="441" height="170" fill="white" transform="translate(72 59)"/>
</clipPath>
</defs>
</svg>
